#N canvas 143 641 401 230 10;
#X declare -path ./lib;
#N canvas 861 186 419 455 init 0;
#X obj 131 97 s lb1;
#X obj 113 123 s lb2;
#X obj 95 152 s lb3;
#X obj 43 55 t b b b b b b;
#X obj 43 14 declare -path ./lib;
#X floatatom 64 351 0 0 0 0 - - -;
#X obj 43 263 cputime;
#X obj 43 207 metro 1000;
#X msg 43 151 1;
#X obj 43 235 t b b;
#X obj 43 323 * 0.1;
#X obj 43 292 int;
#X obj 43 377 s cpu-load-set;
#X obj 43 34 loadbang;
#X msg 188 85 \; pd dsp 0 \; mouseover-on-set 1 \; midi-chan-set 15
\;;
#X connect 3 0 8 0;
#X connect 3 1 14 0;
#X connect 3 3 2 0;
#X connect 3 4 1 0;
#X connect 3 5 0 0;
#X connect 6 0 11 0;
#X connect 7 0 9 0;
#X connect 8 0 7 0;
#X connect 9 0 6 0;
#X connect 9 1 6 1;
#X connect 10 0 5 0;
#X connect 10 0 12 0;
#X connect 11 0 10 0;
#X connect 13 0 3 0;
#X restore 28 91 pd init;
#N canvas 749 145 257 227 LEAP 0;
#N canvas 275 42 1165 832 leap 0;
#X obj 61 213 s hand;
#X obj 33 241 s general;
#X obj 546 36 hand 0;
#X obj 551 376 hand 1;
#X obj 14 33 inlet;
#X obj 33 164 leapmotion;
#X obj 61 189 route hand;
#X obj 74 33 r finger-count;
#X floatatom 74 54 5 0 0 0 - - -, f 5;
#X obj 14 55 metro 40;
#X obj 53 122 s leap-prepoll;
#X obj 14 283 s leap-postpoll;
#X obj 14 81 t b b b;
#X obj 154 262 print;
#N canvas 323 22 1227 676 flags 0;
#X obj 109 135 tgl 15 0 empty to_general general 17 7 0 10 -262144
-1 -1 1 1;
#X obj 109 177 tgl 15 0 empty to_palm_position palm_position 17 7 0
10 -262144 -1 -1 1 1;
#X obj 110 312 tgl 15 0 empty to_fingers_position position 17 7 0 10
-262144 -1 -1 0 1;
#X obj 219 164 tgl 15 0 empty to_tools_position position 17 7 0 10
-262144 -1 -1 0 1;
#X obj 110 344 tgl 15 0 empty to_fingers_size size 17 7 0 10 -262144
-1 -1 0 1;
#X obj 219 196 tgl 15 0 empty to_tools_size size 17 7 0 10 -262144
-1 -1 0 1;
#X obj 219 180 tgl 15 0 empty to_tools_velocity velocity 17 7 0 10
-262144 -1 -1 0 1;
#X obj 110 328 tgl 15 0 empty to_fingers_velocity velocity 17 7 0 10
-262144 -1 -1 0 1;
#X obj 109 162 tgl 15 0 empty to_direction direction 17 7 0 10 -262144
-1 -1 1 1;
#X obj 109 220 tgl 15 0 empty to_sphere_radius sphere_radius 17 7 0
10 -262144 -1 -1 1 1;
#X obj 109 235 tgl 15 0 empty to_sphere_center sphere_center 17 7 0
10 -262144 -1 -1 1 1;
#X obj 109 250 tgl 15 0 empty to_finger_count finger_count 17 7 0 10
-262144 -1 -1 1 1;
#X obj 109 265 tgl 15 0 empty to_tool_count tool_count 17 7 0 10 -262144
-1 -1 0 1;
#X obj 109 191 tgl 15 0 empty to_palm_velocity palm_velocity 17 7 0
10 -262144 -1 -1 1 1;
#X obj 109 206 tgl 15 0 empty to_palm_normal palm_normal 17 7 0 10
-262144 -1 -1 1 1;
#X obj -49 463 outlet;
#X msg -49 133 general \$1;
#X msg -50 177 hands_direction \$1;
#X msg -48 236 hands_sphere_radius \$1;
#X msg -48 251 hands_sphere_center \$1;
#X msg -47 268 hands_finger_count \$1;
#X msg -48 280 hands_tool_count \$1;
#X msg -50 192 hands_palm_position \$1;
#X msg -49 206 hands_palm_velocity \$1;
#X msg -48 220 hands_palm_normal \$1;
#X msg -49 359 fingers_size \$1;
#X obj 359 427 list prepend gestures;
#X obj 359 450 list trim;
#X msg 356 210 tools_size \$1;
#X msg -49 327 fingers_position \$1;
#X msg -49 345 fingers_velocity \$1;
#X msg 356 179 tools_position \$1;
#X msg 356 194 tools_velocity \$1;
#X msg 359 312 TYPE_CIRCLE \$1;
#X msg 359 343 TYPE_KEY_TAP \$1;
#X msg 359 358 TYPE_SCREEN_TAP \$1;
#X msg 359 328 TYPE_SWIPE \$1;
#X obj 220 296 tgl 15 0 empty to_gestures_circle circle 17 7 0 10 -262144
-1 -1 0 1;
#X obj 220 326 tgl 15 0 empty to_gestures_key_tap key_tap 17 7 0 10
-262144 -1 -1 0 1;
#X obj 220 341 tgl 15 0 empty to_gestures_screen_tap screen_tap 17
7 0 10 -262144 -1 -1 0 1;
#X obj 220 311 tgl 15 0 empty to_gestures_swipe swipe 17 7 0 10 -262144
-1 -1 0 1;
#X obj 110 299 tgl 15 0 empty to_fingers_direction direction 17 7 0
10 -262144 -1 -1 0 1;
#X msg -49 310 fingers_direction \$1;
#X text 108 147 hands;
#X text 108 279 fingers;
#X text 218 277 gestures;
#X text 218 131 tools;
#X obj 219 148 tgl 15 0 empty to_tools_direction direction 17 7 0 10
-262144 -1 -1 0 1;
#X msg 356 163 tools_direction \$1;
#X obj 218 110 tgl 15 0 empty empty all_on/off 17 7 0 10 -258113 -1
-1 0 1;
#X msg 526 122 \; to_general \$1 \; to_direction \$1 \; to_palm_position
\$1 \; to_palm_velocity \$1 \; to_palm_normal \$1 \; to_sphere_radius
\$1 \; to_sphere_center \$1 \; to_finger_count \$1 \; to_tool_count
\$1 \; to_fingers_direction \$1 \; to_fingers_position \$1 \; to_fingers_velocity
\$1 \; to_fingers_size \$1 \; to_tools_direction \$1 \; to_tools_position
\$1 \; to_tools_velocity \$1 \; to_tools_size \$1 \; to_gestures_circle
\$1 \; to_gestures_swipe \$1 \; to_gestures_key_tap \$1 \; to_gestures_screen_tap
\$1 \;;
#X connect 0 0 16 0;
#X connect 1 0 22 0;
#X connect 2 0 29 0;
#X connect 3 0 31 0;
#X connect 4 0 25 0;
#X connect 5 0 28 0;
#X connect 6 0 32 0;
#X connect 7 0 30 0;
#X connect 8 0 17 0;
#X connect 9 0 18 0;
#X connect 10 0 19 0;
#X connect 11 0 20 0;
#X connect 12 0 21 0;
#X connect 13 0 23 0;
#X connect 14 0 24 0;
#X connect 16 0 15 0;
#X connect 17 0 15 0;
#X connect 18 0 15 0;
#X connect 19 0 15 0;
#X connect 20 0 15 0;
#X connect 21 0 15 0;
#X connect 22 0 15 0;
#X connect 23 0 15 0;
#X connect 24 0 15 0;
#X connect 25 0 15 0;
#X connect 26 0 27 0;
#X connect 27 0 15 0;
#X connect 28 0 15 0;
#X connect 29 0 15 0;
#X connect 30 0 15 0;
#X connect 31 0 15 0;
#X connect 32 0 15 0;
#X connect 33 0 26 0;
#X connect 34 0 26 0;
#X connect 35 0 26 0;
#X connect 36 0 26 0;
#X connect 37 0 33 0;
#X connect 38 0 34 0;
#X connect 39 0 35 0;
#X connect 40 0 36 0;
#X connect 41 0 42 0;
#X connect 42 0 15 0;
#X connect 47 0 48 0;
#X connect 48 0 15 0;
#X connect 49 0 50 0;
#X coords 0 -1 1 1 250 270 1 100 100;
#X restore 241 33 pd flags;
#X connect 4 0 9 0;
#X connect 5 0 1 0;
#X connect 5 1 6 0;
#X connect 6 0 0 0;
#X connect 6 0 13 0;
#X connect 7 0 8 0;
#X connect 9 0 12 0;
#X connect 12 0 11 0;
#X connect 12 1 5 0;
#X connect 12 2 10 0;
#X connect 14 0 5 0;
#X restore 22 59 pd leap;
#X obj 22 38 r mouseover-on;
#N canvas 0 22 380 500 leap-param-set 0;
#X obj 24 14 r lb1;
#X msg 222 62 \; to_palm_position 1 \; to_direction 1 \; to_palm_velocity
1 \; to_spere_radius 1 \; to_palm_normal 1 \; \; x-leap-min -250 \;
x-leap-max 200 \; \; y-leap-min 50 \; y-leap-max 500 \; \; z-leap-min
-200 \; z-leap-max 150 \;;
#X text 224 38 Select Parameters;
#X text 34 40 ALL Parameters;
#X msg 24 61 \; to_general 1 \; to_direction 1 \; to_palm_position
1 \; to_palm_velocity 1 \; to_palm_normal 1 \; to_sphere_radius 1 \;
to_sphere_center 1 \; to_finger_count 1 \; to_tool_count 0 \; to_fingers_direction
0 \; to_fingers_position 0 \; to_fingers_velocity 0 \; to_fingers_size
0 \; to_tools_direction 0 \; to_tools_position 0 \; to_tools_velocity
0 \; to_tools_size 0 \; to_gestures_circle 0 \; to_gestures_swipe 0
\; to_gestures_key_tap 0 \; to_gestures_screen_tap 0 \; \; x-leap-min
-250 \; x-leap-max 200 \; \; y-leap-min 50 \; y-leap-max 500 \; \;
z-leap-min -200 \; z-leap-max 150 \;;
#X connect 0 0 4 0;
#X restore 24 92 pd leap-param-set;
#N canvas 669 329 208 228 finger-count-entrance 0;
#X obj 18 16 r finger-count;
#X obj 18 66 t f f f b f;
#X obj 49 97 == -1;
#X obj 18 37 change;
#X floatatom 81 37 5 0 0 0 - - -, f 5;
#X obj 16 134 spigot;
#X floatatom 28 156 5 0 0 0 - - -, f 5;
#X floatatom 89 100 5 0 0 0 - - -, f 5;
#X obj 16 174 s finger-count-entrance;
#X connect 0 0 3 0;
#X connect 1 2 2 0;
#X connect 1 4 5 0;
#X connect 2 0 5 1;
#X connect 2 0 7 0;
#X connect 3 0 4 0;
#X connect 3 0 1 0;
#X connect 5 0 6 0;
#X connect 5 0 8 0;
#X restore 24 153 pd finger-count-entrance;
#X text 73 61 Polling Leap for data;
#N canvas 0 22 425 567 finger-count 1;
#X obj 148 23 r hand;
#X obj 147 63 route 0;
#X obj 147 85 route finger_count;
#X obj 297 56 r leap-prepoll;
#X obj 101 258 timer;
#X obj 140 170 change;
#X obj 140 140 f;
#X msg 297 81 -1;
#X obj 140 192 moses 0;
#X obj 101 280 spigot;
#X msg 140 246 0;
#X msg 180 246 1;
#X obj 140 217 t b;
#X obj 180 217 t b;
#X obj 160 386 f;
#X obj 101 347 select 1;
#X obj 175 418 change;
#X floatatom 128 303 5 0 0 0 - - -, f 5;
#X msg 191 384 -1;
#X obj 175 457 s finger-count;
#X obj 101 324 > 300;
#X obj 27 57 r leap-postpoll;
#X obj 27 79 t b b;
#X floatatom 219 419 5 0 0 0 - - -, f 5;
#X floatatom 244 147 5 0 0 0 - - -, f 5;
#X connect 0 0 1 0;
#X connect 1 0 2 0;
#X connect 2 0 6 1;
#X connect 2 0 24 0;
#X connect 3 0 7 0;
#X connect 4 0 9 0;
#X connect 5 0 8 0;
#X connect 6 0 5 0;
#X connect 7 0 6 1;
#X connect 8 0 12 0;
#X connect 8 1 13 0;
#X connect 8 1 14 1;
#X connect 9 0 20 0;
#X connect 10 0 9 1;
#X connect 11 0 9 1;
#X connect 12 0 10 0;
#X connect 12 0 18 0;
#X connect 13 0 4 0;
#X connect 13 0 11 0;
#X connect 14 0 16 0;
#X connect 15 0 14 0;
#X connect 16 0 23 0;
#X connect 16 0 19 0;
#X connect 17 0 20 1;
#X connect 18 0 16 0;
#X connect 20 0 15 0;
#X connect 21 0 22 0;
#X connect 22 0 4 1;
#X connect 22 1 6 0;
#X restore 23 124 pd finger-count;
#X connect 1 0 0 0;
#X restore 28 111 pd LEAP;
#X obj 28 71 tgl 15 0 mouseover-on mouseover-on-set ON/OFF 17 7 0 12
-262144 -1 -1 1 1;
#N canvas 170 292 614 471 CC 0;
#X obj 341 246 unpack 0 0 0 0 0 0;
#X floatatom 341 293 10 0 0 0 frameID - -, f 10;
#X floatatom 341 313 10 0 0 0 timestamp - -, f 10;
#X floatatom 341 333 5 0 0 0 hands - -, f 5;
#X floatatom 341 353 5 0 0 0 fingers - -, f 5;
#X floatatom 341 373 5 0 0 0 tools - -, f 5;
#X floatatom 341 393 5 0 0 0 gestures - -, f 5;
#X obj 341 220 r general;
#N canvas 468 84 1200 640 leap-hand-1-cc 0;
#X obj 200 106 unpack f f f;
#X obj 294 106 unpack f f f;
#X obj 389 106 unpack f f f;
#X text 398 88 velocity;
#X text 361 28 CC 0-127;
#X obj 223 731 noteout 15;
#X obj 488 105 f;
#X text 484 85 sphere radius;
#X obj 335 53 leap-palm-abs 0;
#X obj 53 446 outlet;
#X obj 167 447 outlet;
#X obj 259 449 outlet;
#X obj 352 449 outlet;
#X obj 438 449 outlet;
#X obj 519 450 outlet;
#X obj 603 452 outlet;
#X obj 689 453 outlet;
#X obj 53 420 spigot;
#X obj 167 421 spigot;
#X obj 259 423 spigot;
#X obj 352 423 spigot;
#X obj 438 423 spigot;
#X obj 519 424 spigot;
#X obj 603 426 spigot;
#X obj 689 427 spigot;
#X obj 771 55 r finger-count-entrance;
#X obj 608 50 r finger-count;
#X floatatom 614 93 5 0 0 0 - - -, f 5;
#X obj 752 107 select 0 1 2 3 4 5;
#X obj 908 147 bng 15 250 50 0 empty empty empty 17 7 0 10 -262144
-1 -1;
#X floatatom 781 78 5 0 0 0 - - -, f 5;
#X floatatom 862 141 5 0 0 0 - - -, f 5;
#X obj 781 163 print;
#X text 344 329 \$1 = Finger Count Entrance;
#X text 348 501 8 CC OUTPUTS;
#X text 194 91 direction xyz;
#X text 293 89 palm position;
#X obj 608 71 clip 0 5;
#X obj 607 116 / 5;
#X obj 607 137 * 127;
#X obj 607 158 i;
#X floatatom 607 179 5 0 0 0 - - -, f 5;
#X obj 778 453 outlet;
#X obj 778 427 spigot;
#X obj 391 349 == 5;
#X connect 0 0 22 0;
#X connect 0 1 18 0;
#X connect 1 0 17 0;
#X connect 1 0 24 0;
#X connect 1 1 20 0;
#X connect 1 2 19 0;
#X connect 2 0 21 0;
#X connect 6 0 23 0;
#X connect 8 0 0 0;
#X connect 8 1 1 0;
#X connect 8 2 2 0;
#X connect 8 3 6 0;
#X connect 17 0 9 0;
#X connect 18 0 10 0;
#X connect 19 0 11 0;
#X connect 20 0 12 0;
#X connect 21 0 13 0;
#X connect 22 0 14 0;
#X connect 23 0 15 0;
#X connect 24 0 16 0;
#X connect 25 0 28 0;
#X connect 25 0 30 0;
#X connect 25 0 44 0;
#X connect 26 0 37 0;
#X connect 28 5 32 0;
#X connect 28 5 31 0;
#X connect 28 5 29 0;
#X connect 37 0 27 0;
#X connect 37 0 38 0;
#X connect 38 0 39 0;
#X connect 39 0 40 0;
#X connect 40 0 41 0;
#X connect 40 0 43 0;
#X connect 43 0 42 0;
#X connect 44 0 17 1;
#X connect 44 0 18 1;
#X connect 44 0 19 1;
#X connect 44 0 20 1;
#X connect 44 0 21 1;
#X connect 44 0 22 1;
#X connect 44 0 23 1;
#X connect 44 0 24 1;
#X connect 44 0 43 1;
#X restore 52 52 pd leap-hand-1-cc 5;
#X text 52 33 5 FINGERS ENTRANCE - X FADE;
#X obj 69 88 cc-macro-abs 0;
#X connect 0 0 1 0;
#X connect 0 1 2 0;
#X connect 0 2 3 0;
#X connect 0 3 4 0;
#X connect 0 4 5 0;
#X connect 0 5 6 0;
#X connect 7 0 0 0;
#X connect 8 0 10 0;
#X connect 8 1 10 1;
#X connect 8 2 10 2;
#X connect 8 3 10 3;
#X connect 8 4 10 4;
#X connect 8 5 10 5;
#X connect 8 6 10 6;
#X connect 8 7 10 7;
#X connect 8 8 10 8;
#X restore 28 131 pd CC;
#X obj 22 13 r finger-count-entrance;
#X floatatom 32 36 5 0 0 0 - - -, f 5;
#N canvas 415 24 450 300 general 0;
#X obj 169 75 unpack 0 0 0 0 0 0;
#X floatatom 169 122 10 0 0 0 frameID - -, f 10;
#X floatatom 169 142 10 0 0 0 timestamp - -, f 10;
#X floatatom 169 162 5 0 0 0 hands - -, f 5;
#X floatatom 169 182 5 0 0 0 fingers - -, f 5;
#X floatatom 169 202 5 0 0 0 tools - -, f 5;
#X floatatom 169 222 5 0 0 0 gestures - -, f 5;
#X obj 169 49 r general;
#X obj 321 237 outlet;
#X connect 0 0 1 0;
#X connect 0 1 2 0;
#X connect 0 2 3 0;
#X connect 0 2 8 0;
#X connect 0 3 4 0;
#X connect 0 4 5 0;
#X connect 0 5 6 0;
#X connect 7 0 0 0;
#X coords 0 -1 1 1 150 140 1 100 100;
#X restore 199 22 pd general;
#X connect 4 0 5 0;
