#N canvas 576 39 1104 587 10;
#X obj 208 286 inlet;
#X obj 265 286 inlet;
#X obj 320 286 inlet;
#X obj 373 286 inlet;
#X obj 421 285 inlet;
#X obj 470 285 inlet;
#X obj 525 285 inlet;
#X obj 578 285 inlet;
#X obj 627 285 r midi-chan-set;
#X obj 208 506 ctlout;
#X obj 265 505 ctlout;
#X obj 320 505 ctlout;
#X obj 373 505 ctlout;
#X obj 421 505 ctlout;
#X obj 470 505 ctlout;
#X obj 525 505 ctlout;
#X obj 578 505 ctlout;
#X text 63 259 \$1 = first CC mapping;
#X obj 744 285 r lb1;
#X obj 744 306 \$1;
#X obj 744 327 + 1;
#X obj 744 348 + 1;
#X obj 744 369 + 1;
#X obj 744 390 + 1;
#X obj 744 432 + 1;
#X obj 744 411 + 1;
#X obj 744 453 + 1;
#X obj 208 216 tgl 15 0 empty empty empty 17 7 0 10 -262144 -1 -1 0
1;
#X obj 265 217 tgl 15 0 empty empty empty 17 7 0 10 -262144 -1 -1 0
1;
#X obj 320 217 tgl 15 0 empty empty empty 17 7 0 10 -262144 -1 -1 0
1;
#X obj 373 217 tgl 15 0 empty empty empty 17 7 0 10 -262144 -1 -1 0
1;
#X obj 421 217 tgl 15 0 empty empty empty 17 7 0 10 -262144 -1 -1 0
1;
#X obj 470 218 tgl 15 0 empty empty empty 17 7 0 10 -262144 -1 -1 0
1;
#X obj 525 218 tgl 15 0 empty empty empty 17 7 0 10 -262144 -1 -1 0
1;
#X obj 578 218 tgl 15 0 empty empty empty 17 7 0 10 -262144 -1 -1 0
1;
#X text 371 532 CC OUT;
#X obj 744 474 + 1;
#X obj 724 509 ctlout;
#X text 273 122 This abstraction prepares a series of MIDI CC used
to control a Rack in Ableton Live. The \$1 argument is the initial
CC \, making \$1 -> \$1+7 the CC channels \, and \$1+8 become the On/Off
for the rack object in Live.;
#X obj 725 223 inlet;
#X obj 701 222 tgl 15 0 empty empty empty 17 7 0 10 -262144 -1 -1 0
1;
#X floatatom 814 235 5 0 0 0 - - -;
#X floatatom 620 218 5 0 0 0 - - -;
#X text 705 532 FINGER COUNT;
#X obj 725 244 * 1;
#X text 215 198 Use these toggles to send midi pings for daw midi mapping
;
#X floatatom 165 346 5 0 0 0 - - -;
#X connect 0 0 9 0;
#X connect 0 0 46 0;
#X connect 1 0 10 0;
#X connect 2 0 11 0;
#X connect 3 0 12 0;
#X connect 4 0 13 0;
#X connect 5 0 14 0;
#X connect 6 0 15 0;
#X connect 7 0 16 0;
#X connect 8 0 9 2;
#X connect 8 0 10 2;
#X connect 8 0 11 2;
#X connect 8 0 12 2;
#X connect 8 0 13 2;
#X connect 8 0 14 2;
#X connect 8 0 15 2;
#X connect 8 0 16 2;
#X connect 8 0 37 2;
#X connect 18 0 19 0;
#X connect 19 0 20 0;
#X connect 19 0 9 1;
#X connect 20 0 21 0;
#X connect 20 0 10 1;
#X connect 21 0 22 0;
#X connect 21 0 11 1;
#X connect 22 0 23 0;
#X connect 22 0 12 1;
#X connect 23 0 25 0;
#X connect 23 0 13 1;
#X connect 24 0 26 0;
#X connect 24 0 15 1;
#X connect 25 0 24 0;
#X connect 25 0 14 1;
#X connect 26 0 16 1;
#X connect 26 0 36 0;
#X connect 27 0 9 0;
#X connect 28 0 10 0;
#X connect 29 0 11 0;
#X connect 30 0 12 0;
#X connect 31 0 13 0;
#X connect 32 0 14 0;
#X connect 33 0 15 0;
#X connect 34 0 16 0;
#X connect 36 0 37 1;
#X connect 39 0 41 0;
#X connect 39 0 44 0;
#X connect 40 0 37 0;
#X connect 42 0 16 0;
#X connect 44 0 37 0;
