#N canvas 531 39 1149 895 10;
#X obj 53 356 unpack 0 0 0;
#X floatatom 280 127 5 0 0 0 sphere_center - -;
#X floatatom 322 193 5 0 0 0 tools - -;
#X obj 68 167 unpack 0 0 0;
#X floatatom 68 191 5 0 0 0 x - -;
#X floatatom 108 208 5 0 0 0 y - -;
#X floatatom 149 234 5 0 0 0 z - -;
#X text 78 333 direction;
#X text 510 318 palm velocity;
#X text 77 140 palm normal;
#X text 247 326 palm position;
#X obj 248 347 unpack 0 0 0;
#X obj 780 195 outlet;
#X obj 484 347 unpack 0 0 0;
#X text 212 168 sphere-radius;
#X obj 53 80 route direction palm_position palm_velocity palm_normal
sphere_radius sphere_center finger_count tool_count fingers;
#X obj 53 27 r hand;
#X obj 53 51 route \$1;
#N canvas 0 22 1249 721 fingers 0;
#X obj 556 128 leap-finger-abs 4;
#X obj 323 65 inlet;
#X obj 64 211 leap-finger-abs 0;
#X obj 187 192 leap-finger-abs 1;
#X obj 310 168 leap-finger-abs 2;
#X obj 433 148 leap-finger-abs 3;
#X obj 323 86 print;
#X connect 1 0 0 0;
#X connect 1 0 2 0;
#X connect 1 0 3 0;
#X connect 1 0 4 0;
#X connect 1 0 5 0;
#X connect 1 0 6 0;
#X restore 417 136 pd fingers;
#X floatatom 39 510 5 0 0 0 x - -;
#X floatatom 97 511 5 0 0 0 y - -;
#X floatatom 153 512 5 0 0 0 z - -;
#X floatatom 315 511 5 0 0 0 x - -;
#X floatatom 373 512 5 0 0 0 y - -;
#X floatatom 431 512 5 0 0 0 z - -;
#X floatatom 636 503 5 0 0 0 x - -;
#X floatatom 694 504 5 0 0 0 y - -;
#X floatatom 752 504 5 0 0 0 z - -;
#X floatatom 784 172 5 0 0 0 - - -;
#X obj 300 415 scaling-abs -175 175 175 350;
#X obj 494 742 hsl 128 15 0 127 0 0 empty empty empty -2 -8 0 10 -262144
-1 -1 12700 1;
#X obj 398 464 scaling-abs -200 200 200 400;
#X obj 137 467 scaling-abs -1 1 1 2;
#X obj 513 387 scaling-abs -2000 2000 2000 4000;
#X obj 39 418 scaling-abs -0.9 0.9 0.9 1.8;
#X obj 88 442 scaling-abs -0.4 0.8 0.4 1.2;
#X obj 349 439 scaling-abs 0 400 0 400;
#X obj 611 424 scaling-abs -2000 2000 2000 4000;
#X obj 689 453 scaling-abs -2000 2000 2000 4000;
#X obj 784 151 scaling-abs 30 275 -30 245;
#X floatatom 491 762 5 0 0 0 - - -;
#X obj 231 623 loadbang;
#X msg 476 705 127;
#X obj 55 574 pack f f f;
#X obj 55 595 outlet;
#X obj 352 570 pack f f f;
#X obj 352 591 outlet;
#X obj 631 579 pack f f f;
#X obj 631 600 outlet;
#X connect 0 0 34 0;
#X connect 0 1 35 0;
#X connect 0 2 32 0;
#X connect 3 0 4 0;
#X connect 3 1 5 0;
#X connect 3 2 6 0;
#X connect 11 0 29 0;
#X connect 11 1 36 0;
#X connect 11 2 31 0;
#X connect 13 0 33 0;
#X connect 13 1 37 0;
#X connect 13 2 38 0;
#X connect 15 0 0 0;
#X connect 15 1 11 0;
#X connect 15 2 13 0;
#X connect 15 3 3 0;
#X connect 15 4 39 0;
#X connect 15 5 1 0;
#X connect 15 7 2 0;
#X connect 15 8 18 0;
#X connect 16 0 17 0;
#X connect 17 0 15 0;
#X connect 29 0 22 0;
#X connect 29 0 45 0;
#X connect 30 0 29 1;
#X connect 30 0 31 1;
#X connect 30 0 36 1;
#X connect 30 0 40 0;
#X connect 31 0 24 0;
#X connect 31 0 45 2;
#X connect 32 0 21 0;
#X connect 32 0 43 2;
#X connect 33 0 25 0;
#X connect 33 0 47 0;
#X connect 34 0 19 0;
#X connect 34 0 43 0;
#X connect 35 0 20 0;
#X connect 35 0 43 1;
#X connect 36 0 23 0;
#X connect 36 0 45 1;
#X connect 37 0 26 0;
#X connect 37 0 47 1;
#X connect 38 0 27 0;
#X connect 38 0 47 2;
#X connect 39 0 28 0;
#X connect 39 0 12 0;
#X connect 41 0 42 0;
#X connect 42 0 30 0;
#X connect 43 0 44 0;
#X connect 45 0 46 0;
#X connect 47 0 48 0;
