#N canvas 962 161 570 425 10;
#X obj 70 14 inlet;
#X obj 70 191 outlet;
#X text 6 -12 scales input to 0-128 scale;
#X obj 70 35 clip \$1 \$2;
#X obj 70 71 + \$3;
#X obj 70 92 / \$4;
#X obj 186 17 inlet;
#X text 195 61 exponential curve scaling modifier;
#X text 185 129 must be scaled 0-1;
#X text 202 288 this can use less arguments;
#X obj 47 160 * 127;
#X obj 58 127 curve-scaling-abs;
#X floatatom 136 102 5 0 0 0 - - -;
#X floatatom 131 164 5 0 0 0 - - -;
#X connect 0 0 3 0;
#X connect 3 0 4 0;
#X connect 4 0 5 0;
#X connect 5 0 11 0;
#X connect 5 0 12 0;
#X connect 6 0 11 1;
#X connect 10 0 1 0;
#X connect 11 0 10 0;
#X connect 11 0 13 0;
